<svg width="68" height="64" viewBox="0 0 68 64" fill="none" xmlns="http://www.w3.org/2000/svg">
<path d="M50.7229 37.0556C44.4583 37.0556 39.2041 41.5351 37.8569 47.4965C34.6573 46.1156 31.7271 46.4861 29.5042 47.4629C28.1233 41.4677 22.8691 37.0556 16.6382 37.0556C9.32951 37.0556 3.36805 43.0844 3.36805 50.5278C3.36805 57.9712 9.32951 64 16.6382 64C23.5764 64 29.2347 58.5438 29.7736 51.6056C30.9187 50.7972 33.9163 49.2816 37.5875 51.6729C38.1937 58.5774 43.7847 64 50.7229 64C58.0316 64 63.993 57.9712 63.993 50.5278C63.993 43.0844 58.0316 37.0556 50.7229 37.0556ZM16.6382 60.1604C11.384 60.1604 7.17396 55.8493 7.17396 50.5278C7.17396 45.2063 11.4177 40.8951 16.6382 40.8951C21.8924 40.8951 26.1024 45.2063 26.1024 50.5278C26.1024 55.8493 21.8924 60.1604 16.6382 60.1604ZM50.7229 60.1604C45.4687 60.1604 41.2587 55.8493 41.2587 50.5278C41.2587 45.2063 45.4687 40.8951 50.7229 40.8951C55.9771 40.8951 60.2208 45.2063 60.2208 50.5278C60.2208 55.8493 55.9434 60.1604 50.7229 60.1604ZM67.3611 28.6354H0V33.6875H67.3611V28.6354ZM45.5698 2.12884C44.8288 0.478498 42.9427 -0.397197 41.1576 0.175372L33.6805 2.66773L26.1698 0.175372L26.0014 0.141692C24.2163 -0.363516 22.3302 0.579539 21.6566 2.29725L13.4722 23.5833H53.8889L45.6708 2.29725L45.5698 2.12884Z" fill="#3F9FFF"/>
</svg>
