<svg width="292" height="64" viewBox="0 0 292 64" fill="none" xmlns="http://www.w3.org/2000/svg">
<path d="M50.7229 37.0556C44.4583 37.0556 39.2041 41.5351 37.8569 47.4965C34.6573 46.1156 31.7271 46.4861 29.5042 47.4629C28.1233 41.4677 22.8691 37.0556 16.6382 37.0556C9.32951 37.0556 3.36805 43.0844 3.36805 50.5278C3.36805 57.9712 9.32951 64 16.6382 64C23.5764 64 29.2347 58.5438 29.7736 51.6056C30.9187 50.7972 33.9163 49.2816 37.5875 51.6729C38.1937 58.5774 43.7847 64 50.7229 64C58.0316 64 63.993 57.9712 63.993 50.5278C63.993 43.0844 58.0316 37.0556 50.7229 37.0556ZM16.6382 60.1604C11.384 60.1604 7.17396 55.8493 7.17396 50.5278C7.17396 45.2063 11.4177 40.8951 16.6382 40.8951C21.8924 40.8951 26.1024 45.2063 26.1024 50.5278C26.1024 55.8493 21.8924 60.1604 16.6382 60.1604ZM50.7229 60.1604C45.4687 60.1604 41.2587 55.8493 41.2587 50.5278C41.2587 45.2063 45.4687 40.8951 50.7229 40.8951C55.9771 40.8951 60.2208 45.2063 60.2208 50.5278C60.2208 55.8493 55.9434 60.1604 50.7229 60.1604ZM67.3611 28.6354H0V33.6875H67.3611V28.6354ZM45.5698 2.12884C44.8288 0.478498 42.9427 -0.397197 41.1576 0.175372L33.6805 2.66773L26.1698 0.175372L26.0014 0.141692C24.2163 -0.363516 22.3302 0.579539 21.6566 2.29725L13.4722 23.5833H53.8889L45.6708 2.29725L45.5698 2.12884Z" fill="white"/>
<path d="M105.801 27C105.733 26.1477 105.413 25.483 104.842 25.0057C104.28 24.5284 103.423 24.2898 102.273 24.2898C101.54 24.2898 100.939 24.3793 100.47 24.5582C100.01 24.7287 99.669 24.9631 99.4474 25.2614C99.2259 25.5597 99.1108 25.9006 99.1023 26.2841C99.0852 26.5994 99.1406 26.8849 99.2685 27.1406C99.4048 27.3878 99.6179 27.6136 99.9077 27.8182C100.197 28.0142 100.568 28.1932 101.02 28.3551C101.472 28.517 102.009 28.6619 102.631 28.7898L104.778 29.25C106.227 29.5568 107.467 29.9616 108.499 30.4645C109.53 30.9673 110.374 31.5597 111.03 32.2415C111.686 32.9148 112.168 33.6733 112.474 34.517C112.79 35.3608 112.952 36.2812 112.96 37.2784C112.952 39 112.521 40.4574 111.669 41.6506C110.817 42.8438 109.598 43.7514 108.013 44.3736C106.436 44.9957 104.54 45.3068 102.324 45.3068C100.048 45.3068 98.0625 44.9702 96.3665 44.2969C94.679 43.6236 93.3665 42.5881 92.429 41.1903C91.5 39.7841 91.0313 37.9858 91.0227 35.7955H97.7727C97.8153 36.5966 98.0156 37.2699 98.3736 37.8153C98.7315 38.3608 99.2344 38.7741 99.8821 39.0554C100.538 39.3366 101.318 39.4773 102.222 39.4773C102.98 39.4773 103.615 39.3835 104.126 39.196C104.638 39.0085 105.026 38.7486 105.29 38.4162C105.554 38.0838 105.69 37.7045 105.699 37.2784C105.69 36.8778 105.558 36.5284 105.303 36.2301C105.055 35.9233 104.646 35.6506 104.075 35.4119C103.504 35.1648 102.733 34.9347 101.761 34.7216L99.1534 34.1591C96.8352 33.6562 95.0071 32.8168 93.669 31.6406C92.3395 30.456 91.679 28.8409 91.6875 26.7955C91.679 25.1335 92.1222 23.6804 93.017 22.4361C93.9205 21.1832 95.169 20.2074 96.7628 19.5085C98.3651 18.8097 100.202 18.4602 102.273 18.4602C104.386 18.4602 106.214 18.8139 107.757 19.5213C109.3 20.2287 110.489 21.2259 111.324 22.5128C112.168 23.7912 112.594 25.2869 112.602 27H105.801ZM114.948 24.5455V18.8182H137.704V24.5455H129.829V45H122.823V24.5455H114.948ZM140.379 45V18.8182H151.68C153.623 18.8182 155.324 19.1719 156.781 19.8793C158.238 20.5866 159.372 21.6051 160.181 22.9347C160.991 24.2642 161.396 25.858 161.396 27.7159C161.396 29.5909 160.978 31.1719 160.143 32.4588C159.316 33.7457 158.153 34.7173 156.653 35.3736C155.162 36.0298 153.419 36.358 151.424 36.358H144.674V30.8352H149.993C150.828 30.8352 151.539 30.733 152.127 30.5284C152.724 30.3153 153.18 29.9787 153.495 29.5185C153.819 29.0582 153.981 28.4574 153.981 27.7159C153.981 26.9659 153.819 26.3565 153.495 25.8878C153.18 25.4105 152.724 25.0611 152.127 24.8395C151.539 24.6094 150.828 24.4943 149.993 24.4943H147.487V45H140.379ZM155.72 32.983L162.265 45H154.544L148.152 32.983H155.72ZM171.227 45H163.556L172.199 18.8182H181.914L190.556 45H182.886L177.159 26.0284H176.954L171.227 45ZM169.795 34.6705H184.216V39.9886H169.795V34.6705ZM215.732 18.8182V45H209.8L200.339 31.2443H200.186V45H193.078V18.8182H199.112L208.419 32.5227H208.624V18.8182H215.732ZM236.097 27.4602C235.986 27.0085 235.811 26.6122 235.572 26.2713C235.334 25.9219 235.036 25.6278 234.678 25.3892C234.328 25.142 233.919 24.9588 233.45 24.8395C232.99 24.7116 232.483 24.6477 231.929 24.6477C230.736 24.6477 229.717 24.9332 228.874 25.5043C228.038 26.0753 227.399 26.8977 226.956 27.9716C226.521 29.0455 226.304 30.3409 226.304 31.858C226.304 33.392 226.513 34.7045 226.93 35.7955C227.348 36.8864 227.97 37.7216 228.797 38.3011C229.624 38.8807 230.651 39.1705 231.878 39.1705C232.96 39.1705 233.859 39.0128 234.575 38.6974C235.3 38.3821 235.841 37.9347 236.199 37.3551C236.557 36.7756 236.736 36.0937 236.736 35.3097L237.963 35.4375H231.98V30.375H243.588V34.0057C243.588 36.392 243.081 38.4332 242.067 40.1293C241.061 41.8168 239.672 43.1122 237.899 44.0156C236.135 44.9105 234.111 45.358 231.827 45.358C229.278 45.358 227.041 44.8168 225.115 43.7344C223.189 42.652 221.685 41.1094 220.602 39.1065C219.528 37.1037 218.991 34.7216 218.991 31.9602C218.991 29.7955 219.32 27.8778 219.976 26.2074C220.641 24.5369 221.561 23.1264 222.737 21.9759C223.913 20.8168 225.273 19.9432 226.815 19.3551C228.358 18.7585 230.011 18.4602 231.776 18.4602C233.327 18.4602 234.767 18.6818 236.097 19.125C237.435 19.5597 238.615 20.1818 239.638 20.9915C240.669 21.7926 241.5 22.7429 242.131 23.8423C242.761 24.9418 243.145 26.1477 243.281 27.4602H236.097ZM246.902 45V18.8182H265.772V24.5455H254.01V29.0455H264.8V34.7727H254.01V39.2727H265.721V45H246.902ZM269.297 45V18.8182H280.598C282.541 18.8182 284.241 19.1719 285.699 19.8793C287.156 20.5866 288.29 21.6051 289.099 22.9347C289.909 24.2642 290.314 25.858 290.314 27.7159C290.314 29.5909 289.896 31.1719 289.061 32.4588C288.234 33.7457 287.071 34.7173 285.571 35.3736C284.08 36.0298 282.337 36.358 280.342 36.358H273.592V30.8352H278.911C279.746 30.8352 280.457 30.733 281.045 30.5284C281.642 30.3153 282.098 29.9787 282.413 29.5185C282.737 29.0582 282.899 28.4574 282.899 27.7159C282.899 26.9659 282.737 26.3565 282.413 25.8878C282.098 25.4105 281.642 25.0611 281.045 24.8395C280.457 24.6094 279.746 24.4943 278.911 24.4943H276.405V45H269.297ZM284.638 32.983L291.183 45H283.462L277.07 32.983H284.638Z" fill="white"/>
</svg>
